<svg id="Capa_1" style="fill: white;" enable-background="new 0 0 512 512" height="512" viewBox="0 0 512 512" width="512" xmlns="http://www.w3.org/2000/svg"><path d="m511.823 500.125-24.4-127.879c-.003-.014-.015-.01-.019-.021-.17-.88-.445-1.745-.853-2.564-1.317-2.645-3.736-4.571-6.608-5.263l-64.433-15.526 52.22-47.473c2.82-2.57 3.931-6.44 2.891-10.11l-4.851-17.23c-1.21-4.29-5.16-7.29-9.62-7.29-.909 0-1.83.13-2.71.38-5.31 1.5-8.409 7.03-6.92 12.34l3.181 11.27-102.571 93.241h-61.13v-149.9l96.39-44.1c2.38-1.08 4.21-3.03 5.16-5.47s.91-5.11-.11-7.51l-19-44.96c-1.06-2.51-3.04-4.44-5.58-5.43-2.51-.97-5.329-.89-7.779.23l-103.73 47.37-97.77-47.28c-2.44-1.18-5.34-1.31-7.87-.36-2.55.96-4.63 2.96-5.69 5.47l-19 44.96c-2.07 4.9.06 10.56 4.84 12.88l54 26.26c1.38.67 2.85 1.01 4.37 1.01 3.86 0 7.31-2.16 9-5.63 2.41-4.96.34-10.96-4.62-13.37l-45.47-22.11 11.21-26.53 92.53 44.75c2.62 1.27 5.86 1.31 8.51.1l98.63-45.06 11.221 26.54-93.4 42.72c-3.55 1.62-5.84 5.19-5.84 9.09v122.731c-3.393.385-6.736.599-10 .599-6.432 0-13.163-.81-20-2.196v-77.774c0-5.51-4.49-10-10-10s-10 4.49-10 10v112.97h-60.86l-93.082-93.08 57.4-232.89c5.52-22.39 25.48-38.03 48.55-38.03h167.559c22.29 0 42.08 14.98 48.12 36.44l38.431 136.42c1.21 4.29 5.16 7.29 9.62 7.29.909 0 1.829-.13 2.72-.38 2.57-.72 4.7-2.4 6.01-4.73 1.311-2.33 1.63-5.03.9-7.6 0-.01 0-.01 0-.01l-38.431-136.41c-2.08-7.42-5.35-14.38-9.699-20.7-4.25-6.17-9.431-11.6-15.421-16.13-5.979-4.52-12.609-8.05-19.689-10.46-7.271-2.47-14.861-3.73-22.561-3.73h-167.559c-7.91 0-15.69 1.32-23.13 3.92-7.24 2.54-13.99 6.23-20.04 10.98-6.06 4.74-11.26 10.41-15.46 16.83-4.3 6.6-7.45 13.84-9.34 21.52l-58.75 238.36c-.84 3.43.14 6.96 2.64 9.46l48.727 48.727-60.599 14.602c-.003.001-.003.008-.006.01-3.775.912-6.731 3.948-7.474 7.838l-24.4 127.879c-.559 2.928.218 5.952 2.118 8.249 1.898 2.295 4.724 3.625 7.704 3.625h491.999c2.98 0 5.806-1.33 7.705-3.626 1.901-2.296 2.677-5.321 2.119-8.249zm-489.735-8.125 16.062-84.176 36.598 84.176zm371.372-21.62c-.98-2.48-2.87-4.44-5.32-5.5-1.27-.55-2.609-.83-3.979-.83-3.99 0-7.591 2.36-9.181 6.01l-9.539 21.94h-218.883l-9.538-21.94c-1.59-3.65-5.19-6.01-9.18-6.01-1.37 0-2.71.28-3.98.83-2.45 1.06-4.34 3.02-5.32 5.5-.98 2.49-.93 5.21.14 7.66l6.069 13.96h-28.192l-48.238-110.947 25.517-6.149 8.954 20.596c1.59 3.65 5.19 6.01 9.18 6.01 1.37 0 2.71-.28 3.98-.83 5.05-2.2 7.38-8.1 5.18-13.16l-7.553-17.373 15.657-3.773 34.696 34.696c1.86 1.86 4.44 2.93 7.07 2.93h75c2.63 0 5.21-1.07 7.07-2.93s2.93-4.44 2.93-7.07v-24.871c6.772 1.192 13.484 1.871 20 1.871 3.288 0 6.629-.187 10-.512v23.512c0 2.63 1.069 5.21 2.93 7.07s4.44 2.93 7.07 2.93h75c2.49 0 4.88-.92 6.729-2.6l39.892-36.265 20.801 5.012-7.553 17.373c-1.07 2.45-1.12 5.17-.141 7.66.98 2.48 2.87 4.44 5.32 5.5 1.27.55 2.61.83 3.98.83h.01c3.979 0 7.58-2.36 9.17-6.01l8.954-20.596 25.518 6.149-48.237 110.947h-28.193l6.069-13.96c1.07-2.45 1.12-5.17.141-7.66zm43.792 21.62 36.598-84.176 16.061 84.176z"/><circle cx="402.088" cy="432.78" r="10"/><circle cx="109.898" cy="432.78" r="10"/><circle cx="224.704" cy="226.84" r="10"/><circle cx="443.943" cy="233.46" r="10"/></svg>