<svg viewBox="0 0 132.13 38.5" width="142" height="42" xmlns="http://www.w3.org/2000/svg">
  <path class="cls-1" fill="#e31837" d="M29.58 14.68H34l1.08-3.59 9.35-5.35 1-3.17H41l-.47 1.59-6.92 3.91-4.35-3.76.53-1.75h-4.42l-.9 3L30.69 11zM66.77 9.76l-1.47 4.91h20l1-3.19H71.07l6.69-2.81-5.23-2.91H88l1-3.2H69l-1.51 4.78 2.15 1.23zM8.01 2.57H3.63L0 14.68h4.38L8.01 2.57zM23.19 2.57h-4L17.85 7h-10l-1 3.2h10l-1.34 4.46H20l3.6-12.09zM50.36 5.76h11.18l-.31 1-3.76 1.58h-6.74l-1 3.19h8.41l6.89-2.9 1.87-6.06h-20l-3.63 12.11h4.41zM88.59 10.63l-1.22 4.05h4.41s.75-2.52.93-3.07c-1.33-.37-2.71-.69-4.12-.98zM102.78 11.38l6.36-2.59L111 2.57H91l-1.9 6.36a46.92 46.92 0 0 1 13.68 2.45zm-8.32-5.62h11.17c-.14.47-.28.94-.34 1.13l-3.43 1.45h-8.18c.17-.54.68-2.24.78-2.58z"></path>
  <path class="cls-2" fill="#b3b3b3" d="M130.58 38.5c-3-8.9-7.54-15.22-12.69-19.69 4.61-4.49 7.76-10.58 8.33-18.81 0 0-1.88 8.19-12 16-15-10.23-33-7.32-33-7.32a61.3 61.3 0 0 1 29.3 9.91c-9.46 6-24.46 11.2-48.09 11.37 0 0 33.83 5.1 52.25-8.44a66.93 66.93 0 0 1 15.9 16.98z"></path>
  <path class="cls-3" fill="#fff" d="M127.33 4.91a2.4 2.4 0 1 1 2.4 2.41 2.39 2.39 0 0 1-2.4-2.41zm4.41 0a2 2 0 1 0-4 0 2 2 0 1 0 4 0zm-.82 1.35h-.39L129.77 5h-.59v1.26h-.34V3.59H130c.71 0 .94.26.94.71s-.36.72-.84.73zm-1.26-1.49c.38 0 .94.07.94-.48s-.34-.46-.68-.46h-.76v.95z"></path>
</svg>