<svg width="512" height="512" viewBox="0 0 512 512" fill="none" xmlns="http://www.w3.org/2000/svg">
<path d="M494.41 162.57C461.6 78.89 386 16.69 294.54 2.88C281.97 0.98 269.1 0 256 0C175.2 0 103.15 37.43 56.23 95.9C21.05 139.75 0 195.42 0 256C0 289.28 6.35 321.08 17.91 350.25C51 433.76 126.75 495.72 218.27 509.24C230.58 511.06 243.18 512 256 512C337.1 512 409.39 474.29 456.29 415.44C491.16 371.7 512 316.28 512 256C512 223.03 505.77 191.52 494.41 162.57ZM310.09 348.73L202.83 349.29L148.75 255.82L202.2 163.09L309.48 162.9L363.37 255.6L310.09 348.73Z" fill="#EC5242"/>
<path d="M294.54 2.88L202.2 163.09L148.75 255.82L56.23 95.9C103.15 37.43 175.2 0 256 0C269.1 0 281.97 0.98 294.54 2.88Z" fill="#EC5242"/>
<path d="M494.41 162.57L309.48 162.9L202.2 163.09L294.54 2.88C386 16.69 461.6 78.89 494.41 162.57Z" fill="#F4AFA8"/>
<path d="M512 256C512 316.28 491.16 371.7 456.29 415.44L363.37 255.6L309.48 162.9L494.41 162.57C505.77 191.52 512 223.03 512 256Z" fill="#EC5242"/>
<path d="M456.29 415.44C409.39 474.29 337.1 512 256 512C243.18 512 230.58 511.06 218.27 509.24L310.09 348.73L363.37 255.6L456.29 415.44Z" fill="#F4AFA8"/>
<path d="M310.09 348.73L218.27 509.24C126.75 495.72 51 433.76 17.91 350.25L202.83 349.29L310.09 348.73Z" fill="#EC5242"/>
<path d="M202.83 349.29L17.91 350.25C6.35 321.08 0 289.28 0 256C0 195.42 21.05 139.75 56.23 95.9L148.75 255.82L202.83 349.29Z" fill="#F4AFA8"/>
</svg>
