<?xml version="1.0" encoding="iso-8859-1"?>
<!-- Generator: Adobe Illustrator 18.0.0, SVG Export Plug-In . SVG Version: 6.00 Build 0)  -->
<!DOCTYPE svg PUBLIC "-//W3C//DTD SVG 1.1//EN" "http://www.w3.org/Graphics/SVG/1.1/DTD/svg11.dtd">
<svg version="1.1" id="Capa_1" xmlns="http://www.w3.org/2000/svg" xmlns:xlink="http://www.w3.org/1999/xlink" x="0px" y="0px"
	 viewBox="0 0 297 297" style="enable-background:new 0 0 297 297;" xml:space="preserve">
<g>
	<path d="M189.606,58.421l-22.09-3.56l-10.213-20.016c-1.688-3.31-5.089-5.393-8.804-5.393c-3.715,0-7.115,2.083-8.804,5.393
		l-10.213,20.016l-22.09,3.56c-3.657,0.59-6.677,3.175-7.824,6.696c-1.148,3.521-0.23,7.39,2.378,10.02l15.81,15.95l-3.453,22.243
		c-0.569,3.666,0.963,7.343,3.968,9.52c1.719,1.246,3.753,1.88,5.8,1.88c1.53,0,3.067-0.355,4.482-1.075l19.945-10.152
		l19.947,10.152c3.309,1.682,7.277,1.371,10.283-0.805c3.004-2.178,4.536-5.854,3.967-9.521l-3.455-22.242l15.811-15.949
		c2.608-2.63,3.526-6.498,2.378-10.02C196.283,61.596,193.264,59.011,189.606,58.421z M161.691,80.714
		c-2.21,2.229-3.23,5.374-2.748,8.476l1.257,8.087l-7.217-3.673c-1.409-0.717-2.946-1.074-4.483-1.074
		c-1.537,0-3.075,0.357-4.483,1.074l-7.216,3.673l1.256-8.088c0.482-3.102-0.538-6.246-2.748-8.475l-5.785-5.837l8.058-1.298
		c3.112-0.502,5.799-2.458,7.23-5.267l3.689-7.228l3.688,7.228c1.432,2.809,4.118,4.765,7.23,5.267l8.058,1.298L161.691,80.714z"/>
	<path d="M262.654,11.202h-39.038V9.884c0-5.458-4.426-9.884-9.884-9.884H83.27c-5.458,0-9.884,4.426-9.884,9.884v1.318h-39.04
		c-5.459,0-9.884,4.425-9.884,9.884v54.029c0,37.248,20.161,58.044,56.813,58.772c3.445,8.52,7.957,16.27,13.485,22.951
		c7.758,9.378,17.146,16.395,27.549,20.764v50.708H83.27c-5.458,0-9.884,4.425-9.884,9.884v48.923c0,5.458,4.426,9.884,9.884,9.884
		h130.463c5.458,0,9.884-4.426,9.884-9.884v-48.923c0-5.459-4.426-9.884-9.884-9.884h-39.04v-50.708
		c10.402-4.369,19.791-11.386,27.549-20.764c5.528-6.681,10.04-14.432,13.485-22.951c36.65-0.728,56.811-21.523,56.811-58.772
		V21.086C272.538,15.627,268.113,11.202,262.654,11.202z M44.229,75.115V30.969h29.157v60.454c0,7.696,0.703,15.179,2.045,22.34
		C53.932,111.517,44.229,99.341,44.229,75.115z M203.849,248.076v29.156H93.153v-29.156H203.849z M154.925,228.31h-12.848v-45.786
		c2.122,0.198,4.261,0.322,6.424,0.322c2.163,0,4.302-0.124,6.424-0.322V228.31z M148.501,163.078
		c-32.07,0-55.348-30.135-55.348-71.655V19.768h110.695v71.655C203.849,132.943,180.571,163.078,148.501,163.078z M252.771,75.115
		c0,24.226-9.703,36.4-31.2,38.648c1.342-7.161,2.045-14.644,2.045-22.34V30.969h29.155V75.115z"/>
</g>
<g>
</g>
<g>
</g>
<g>
</g>
<g>
</g>
<g>
</g>
<g>
</g>
<g>
</g>
<g>
</g>
<g>
</g>
<g>
</g>
<g>
</g>
<g>
</g>
<g>
</g>
<g>
</g>
<g>
</g>
</svg>
