
<svg xmlns="http://www.w3.org/2000/svg" id="Layer_1" data-name="Layer 1" viewBox="0 0 207.55 31.53">
	<defs><style>.cls-1{fill:lime;}</style></defs>
	<polygon class="cls-1" points="154.51 0 132.44 0 132.44 3.47 152.51 3.47 154.51 0"/>
	<polygon class="cls-1" points="154.51 14.03 132.44 14.03 132.44 17.5 152.51 17.5 154.51 14.03"/>
	<polygon class="cls-1" points="154.51 28.06 132.44 28.06 132.44 31.53 152.51 31.53 154.51 28.06"/>
		<path class="cls-1" d="M198.66,10V8A7.77,7.77,0,0,0,190.89.23H176.58V31.77h3.47v-14h6.5l8.1,14h4l-8.1-14h.33A7.77,7.77,0,0,0,198.66,10ZM180.05,3.7h10.84a4.31,4.31,0,0,1,4.3,4.3v2a4.31,4.31,0,0,1-4.3,4.3H180.05Z" transform="translate(0 -0.23)"/>
		<path class="cls-1" d="M22.08,10V8A7.77,7.77,0,0,0,14.31.23H0V31.77H3.47v-14H10l8.1,14h4l-8.1-14h.33A7.77,7.77,0,0,0,22.08,10ZM3.47,3.7H14.31A4.31,4.31,0,0,1,18.61,8v2a4.31,4.31,0,0,1-4.3,4.3H3.47Z" transform="translate(0 -0.23)"/>
	<polygon class="cls-1" points="46.13 31.53 55.13 9.26 64.13 31.53 67.87 31.53 57 4.63 55.13 0 53.26 4.63 42.39 31.53 46.13 31.53"/>
		<path class="cls-1" d="M201.43.23h2.21V.67h-.85V3.29h-.5V.67h-.86Z" transform="translate(0 -0.23)"/>
		<path class="cls-1" d="M204.49.24h.85L206,2.63l.68-2.39h.86V3.29h-.49V.78H207l-.72,2.39h-.51L205,.78H205V3.29h-.49Z" transform="translate(0 -0.23)"/>
	<polygon class="cls-1" points="110.49 28.06 94.3 28.06 108.5 3.47 110.5 0 106.5 0 88.29 0 88.29 3.47 104.5 3.47 90.3 28.06 88.29 31.53 92.3 31.53 108.49 31.53 110.49 28.06"/>
	<polygon class="cls-1" points="154.51 0 132.44 0 132.44 3.47 152.51 3.47 154.51 0"/>
	<polygon class="cls-1" points="154.51 14.03 132.44 14.03 132.44 17.5 152.51 17.5 154.51 14.03"/>
	<polygon class="cls-1" points="154.51 28.06 132.44 28.06 132.44 31.53 152.51 31.53 154.51 28.06"/>
	<path class="cls-1" d="M198.66 10V8A7.77 7.77 0 0 0 190.89H176.58V31.77h3.47v-14h6.5l8.1 14h4l-8.1-14h0.33A7.77 7.77 0 0 0 198.66 10ZM180.05 3.7h10.84a4.31 4.31 0 0 1 4.3 4.3v2a4.31 4.31 0 0 1-4.3 4.3H180.05Z" transform="translate(0 -0.23)"/>
	<path class="cls-1" d="M22.08 10V8A7.77 7.77 0 0 0 14.31H0V31.77H3.47v-14H10l8.1 14h4l-8.1-14h0.33A7.77 7.77 0 0 0 22.08 10ZM3.47 3.7H14.31A4.31 4.31 0 0 1 18.61 8v2a4.31 4.31 0 0 1-4.3 4.3H3.47Z" transform="translate(0 -0.23)"/>
	<polygon class="cls-1" points="46.13 31.53 55.13 9.26 64.13 31.53 67.87 31.53 57 4.63 55.13 0 53.26 4.63 42.39 31.53 46.13 31.53"/>
	<path class="cls-1" d="M201.43h2.21V0.67h-0.85V3.29h-0.5V0.67h-0.86Z" transform="translate(0 -0.23)"/>
	<path class="cls-1" d="M204.49h0.85L206 2.63l0.68-2.39h0.86V3.29h-0.49V0.78H207l-0.72 2.39h-0.51L205 0.78H205V3.29h-0.49Z" transform="translate(0 -0.23)"/>
</svg>