<svg width="901" height="811" viewBox="0 0 901 811" fill="none" xmlns="http://www.w3.org/2000/svg">
<path d="M309.719 177.406H140.781V152.062C140.781 138.065 153.386 126.719 168.938 126.719H281.562C297.114 126.719 309.719 138.065 309.719 152.062V177.406Z" fill="#272A31"/>
<path d="M760.219 177.406H591.281V152.062C591.281 138.065 603.886 126.719 619.438 126.719H732.062C747.614 126.719 760.219 138.065 760.219 152.062V177.406Z" fill="#272A31"/>
<path d="M28.1562 329.469V558.836C28.1562 628.118 90.5523 684.281 167.523 684.281C204.485 684.281 239.933 671.064 266.07 647.539L362.554 560.692C400.838 526.233 422.344 479.497 422.344 430.766V329.469H28.1562Z" fill="#272A31"/>
<path d="M872.844 329.469V558.836C872.844 628.118 810.448 684.281 733.477 684.281C696.515 684.281 661.066 671.064 634.93 647.539L538.446 560.692C500.162 526.233 478.656 479.497 478.656 430.766V329.469H872.844Z" fill="#272A31"/>
<path d="M675.75 152.062C629.715 152.062 587.369 166.271 553.823 190.078H347.177C313.631 166.271 271.285 152.062 225.25 152.062C116.398 152.062 28.1562 231.49 28.1562 329.469C28.1562 427.448 116.398 506.875 225.25 506.875C246.828 506.875 267.592 503.743 287.023 497.975C300.411 532.658 337.018 557.562 380.109 557.562C407.692 557.562 432.612 547.351 450.5 530.914C468.388 547.351 493.308 557.562 520.891 557.562C563.982 557.562 600.589 532.658 613.977 497.975C633.408 503.743 654.172 506.875 675.75 506.875C784.602 506.875 872.844 427.448 872.844 329.469C872.844 231.49 784.602 152.062 675.75 152.062Z" fill="#E5E5E5"/>
<path d="M497.428 278.781H403.574C380.248 278.781 361.34 261.761 361.34 240.766V190.078H539.662V240.766C539.662 261.761 520.753 278.781 497.428 278.781Z" fill="#272A31"/>
<path d="M767.258 373.82C794.471 373.82 816.531 353.963 816.531 329.469C816.531 304.974 794.471 285.117 767.258 285.117C740.045 285.117 717.984 304.974 717.984 329.469C717.984 353.963 740.045 373.82 767.258 373.82Z" fill="#EC5242"/>
<path d="M584.242 373.82C611.455 373.82 633.516 353.963 633.516 329.469C633.516 304.974 611.455 285.117 584.242 285.117C557.029 285.117 534.969 304.974 534.969 329.469C534.969 353.963 557.029 373.82 584.242 373.82Z" fill="#EC5242"/>
<path d="M675.75 291.453C702.963 291.453 725.023 271.596 725.023 247.102C725.023 222.607 702.963 202.75 675.75 202.75C648.537 202.75 626.477 222.607 626.477 247.102C626.477 271.596 648.537 291.453 675.75 291.453Z" fill="#EC5242"/>
<path d="M675.75 456.188C702.963 456.188 725.023 436.331 725.023 411.836C725.023 387.341 702.963 367.484 675.75 367.484C648.537 367.484 626.477 387.341 626.477 411.836C626.477 436.331 648.537 456.188 675.75 456.188Z" fill="#EC5242"/>
<path d="M520.891 515.322C549.399 515.322 572.51 494.52 572.51 468.859C572.51 443.199 549.399 422.396 520.891 422.396C492.382 422.396 469.271 443.199 469.271 468.859C469.271 494.52 492.382 515.322 520.891 515.322Z" fill="#272A31"/>
<path d="M380.109 515.322C408.618 515.322 431.729 494.52 431.729 468.859C431.729 443.199 408.618 422.396 380.109 422.396C351.601 422.396 328.49 443.199 328.49 468.859C328.49 494.52 351.601 515.322 380.109 515.322Z" fill="#272A31"/>
<path d="M262.568 282.575L238.589 301.074C236.037 303.043 232.787 304.125 229.428 304.125H221.072C217.711 304.125 214.463 303.043 211.911 301.074L187.932 282.575C184.812 280.167 183.016 276.652 183.016 272.954V215.422C183.016 208.424 189.319 202.75 197.094 202.75H253.406C261.181 202.75 267.484 208.424 267.484 215.422V272.954C267.484 276.652 265.688 280.167 262.568 282.575Z" fill="#272A31"/>
<path d="M262.568 376.363L238.589 357.863C236.037 355.894 232.787 354.812 229.428 354.812H221.072C217.711 354.812 214.463 355.894 211.911 357.863L187.932 376.363C184.812 378.77 183.016 382.285 183.016 385.984V443.516C183.016 450.514 189.319 456.188 197.094 456.188H253.406C261.181 456.188 267.484 450.514 267.484 443.516V385.984C267.484 382.285 265.688 378.77 262.568 376.363Z" fill="#272A31"/>
<path d="M173.152 295.879L193.704 317.462C195.892 319.759 197.094 322.685 197.094 325.708V333.229C197.094 336.255 195.892 339.179 193.704 341.475L173.152 363.059C170.477 365.867 166.572 367.484 162.463 367.484H98.5469C90.7722 367.484 84.4688 361.811 84.4688 354.812V304.125C84.4688 297.127 90.7722 291.453 98.5469 291.453H162.463C166.572 291.453 170.477 293.07 173.152 295.879Z" fill="#272A31"/>
<path d="M277.348 295.879L256.796 317.462C254.608 319.759 253.406 322.685 253.406 325.708V333.229C253.406 336.255 254.608 339.179 256.796 341.475L277.348 363.059C280.023 365.867 283.928 367.484 288.037 367.484H351.953C359.728 367.484 366.031 361.811 366.031 354.812V304.125C366.031 297.127 359.728 291.453 351.953 291.453H288.037C283.928 291.453 280.023 293.07 277.348 295.879Z" fill="#272A31"/>
</svg>
