<svg id="Capa_1" style="fill: white;" enable-background="new 0 0 514.269 514.269" height="512" viewBox="0 0 514.269 514.269" width="512" xmlns="http://www.w3.org/2000/svg"><g><path d="m105.01 288.259h90v30h-90z"/><path d="m105.01 348.259h180v30h-180z"/><path d="m514.269 300.995-45.007-59.979c19.422-25.86 29.998-57.361 29.998-89.951 0-82.672-67.29-149.93-150-149.93s-150 67.258-150 149.93v2.294c-101.025-2.339-184.25 79.077-184.25 179.861 0 39.947 13.24 78.526 37.511 109.925l-52.521 69.989h195.01c111.885 0 197.19-101.54 177.104-212.14h142.155zm-285.009-149.931c0-66.13 53.832-119.93 120-119.93s120 53.8 120 119.93c0 29.379-10.744 57.648-30.253 79.601l-8.144 9.163 23.388 31.167h-90.345c-21.548-58.245-72.44-102.38-134.647-114.408v-5.523zm-34.25 332.07h-134.99l30.953-41.248-8.144-9.163c-24.388-27.44-37.819-62.778-37.819-99.503 0-82.664 67.29-149.915 150-149.915s150 67.251 150 149.915c0 82.663-67.29 149.914-150 149.914z"/></g></svg>