<svg width="366" height="366" viewBox="0 0 366 366" fill="none" xmlns="http://www.w3.org/2000/svg">
<g clip-path="url(#clip0)">
<path d="M58.558 229.757L72.191 216.124L149.521 293.454L135.888 307.087L58.558 229.757Z" fill="white"/>
<path d="M215.582 296.229L292.912 218.899L306.545 232.532L229.215 309.862L215.582 296.229Z" fill="white"/>
<path d="M54.176 281.267L78.844 256.608L108.99 286.764L84.322 311.423L54.176 281.267Z" fill="#EC5242"/>
<path d="M29.599 357.388C17.804 357.187 8.405 347.462 8.607 335.667C8.702 330.12 10.951 324.827 14.879 320.908L28.799 306.988L58.959 337.148L44.719 350.748C40.784 354.914 35.329 357.309 29.599 357.388Z" fill="#EC5242"/>
<path d="M28.438 307.013L54.233 281.218L84.384 311.369L58.589 337.164L28.438 307.013Z" fill="#EC5242"/>
<path d="M211.839 211.708L240.639 185.948L278.639 228.348L253.519 253.388L211.839 211.708Z" fill="#E5E5E5"/>
<path d="M12.079 84.828L8.239 8.108L84.959 11.948L182.879 121.388L125.119 185.948L12.079 84.828Z" fill="#E5E5E5"/>
<path d="M256.659 286.663L286.81 256.512L311.474 281.176L281.323 311.327L256.659 286.663Z" fill="#EC5242"/>
<path d="M336.159 357.228C330.458 357.164 325.017 354.832 321.039 350.748L307.119 336.828L337.279 306.668L350.879 320.908C358.978 329.206 358.978 342.45 350.879 350.748C346.999 354.736 341.721 357.06 336.159 357.228Z" fill="#EC5242"/>
<path d="M281.388 311.434L311.539 281.283L337.334 307.078L307.183 337.229L281.388 311.434Z" fill="#EC5242"/>
<path d="M182.879 237.628L211.839 211.708L253.519 253.388L228.479 278.508L182.879 237.628Z" fill="#E5E5E5"/>
<path d="M87.119 228.348L280.799 11.948L357.519 8.108L353.679 84.828L137.279 278.508L87.119 228.348Z" fill="#E5E5E5"/>
<path d="M342.879 301.388L317.199 275.548L298.159 256.508L315.039 239.628C318.141 236.508 318.141 231.468 315.039 228.348L296.799 210.108C293.679 207.006 288.639 207.006 285.519 210.108L278.959 216.668L251.999 186.508L358.879 90.828C360.475 89.391 361.426 87.373 361.519 85.228L365.359 8.50801C365.482 6.24401 364.639 4.03401 363.039 2.42801C361.433 0.828007 359.223 -0.0149927 356.959 0.108007L280.239 3.86801C278.094 3.96101 276.076 4.91201 274.639 6.50801L182.879 109.388L90.959 6.74801C89.522 5.15201 87.504 4.20101 85.359 4.10801L8.639 0.348007C6.375 0.225007 4.165 1.06801 2.559 2.66801C0.959001 4.27401 0.116001 6.48401 0.239001 8.74801L4.079 85.468C4.172 87.613 5.123 89.631 6.719 91.068L113.759 187.068L86.879 216.748L80.319 210.188C77.199 207.086 72.159 207.086 69.039 210.188L50.799 228.428C47.697 231.548 47.697 236.588 50.799 239.708L67.679 256.588L48.559 275.548L8.559 315.548C-2.884 327.036 -2.848 345.626 8.64 357.069C14.123 362.53 21.54 365.606 29.279 365.628C37.051 365.654 44.511 362.572 49.999 357.068L108.719 298.348L125.599 315.228C128.719 318.33 133.759 318.33 136.879 315.228L155.119 296.988C158.221 293.868 158.221 288.828 155.119 285.708L148.879 278.748L182.879 248.428L216.879 278.748L210.319 285.308C207.217 288.428 207.217 293.468 210.319 296.588L228.559 314.828C231.679 317.93 236.719 317.93 239.839 314.828L256.719 297.948L275.759 316.988L301.519 342.748L315.439 356.668C326.813 368.225 345.402 368.373 356.959 356.999C368.516 345.625 368.664 327.036 357.29 315.479C357.18 315.368 357.07 315.257 356.959 315.148L342.879 301.388ZM267.439 228.028L253.359 242.108L223.279 212.028L239.839 197.228L267.439 228.028ZM19.439 81.068L16.239 16.508L80.799 19.708L171.679 121.308L153.119 142.028L119.519 108.428C116.163 105.554 111.113 105.945 108.239 109.301C105.674 112.296 105.674 116.713 108.239 119.708L142.879 154.028L124.479 174.748L19.439 81.068ZM38.559 345.068C36.061 347.582 32.663 348.993 29.119 348.988C21.761 348.442 16.238 342.034 16.785 334.676C17.003 331.733 18.19 328.946 20.159 326.748L28.159 318.748L46.879 337.228L38.559 345.068ZM58.079 325.548L39.679 307.068L54.159 292.588L73.039 311.468L58.079 325.548ZM83.919 299.708L65.039 280.828L78.879 267.868L97.759 286.748L83.919 299.708ZM131.119 297.548L114.319 280.748L84.159 250.588L67.679 234.028L74.559 227.148L138.559 291.148L131.119 297.548ZM137.119 267.068L123.039 252.988L256.639 119.388C259.995 116.514 260.386 111.464 257.512 108.108C254.638 104.752 249.588 104.361 246.232 107.235C245.919 107.503 245.627 107.795 245.359 108.108L111.759 241.708L97.679 227.628L130.479 190.988L284.559 19.788L349.119 16.588L345.919 81.148L235.359 179.948L137.119 267.068ZM194.399 237.228L211.599 222.748L242.239 253.388L228.159 267.468L194.399 237.228ZM250.399 280.668L234.159 297.948L227.279 291.068L291.279 227.068L298.159 233.948L281.279 250.828L250.399 280.668ZM267.359 286.348L286.879 267.868L300.239 281.228L281.359 300.108L267.359 286.348ZM306.559 325.548L292.079 311.068L310.959 292.188L325.439 306.668L306.559 325.548ZM344.959 345.068C339.674 350.107 331.364 350.107 326.079 345.068L318.079 337.068L337.359 318.748L345.359 326.748C350.529 331.879 350.635 340.206 345.599 345.468L344.959 345.068Z" fill="#3A302B"/>
</g>
<defs>
<clipPath id="clip0">
<rect width="365.725" height="365.725" fill="white"/>
</clipPath>
</defs>
</svg>
