<svg id="Layer_3" enable-background="new 0 0 64 64" height="512" viewBox="0 0 64 64" width="512" xmlns="http://www.w3.org/2000/svg"><g><path d="m62 26h-3.582l4.289-4.293c.383-.383.392-1.001.02-1.394l-17.993-19c-.187-.197-.445-.31-.715-.313-.267.007-.531.104-.722.296l-24.487 24.704h-16.81c-.553 0-1 .448-1 1 0 1.336.741 2.554 1.983 3.258.627.355 1.017 1.023 1.017 1.742 0 .898-.604 1.691-1.467 1.929-.917.252-1.533 1.031-1.533 1.941v.261c0 .909.616 1.689 1.532 1.94.864.238 1.468 1.031 1.468 1.929s-.604 1.691-1.467 1.929c-.917.252-1.533 1.031-1.533 1.941v.261c0 .909.616 1.689 1.532 1.94.864.238 1.468 1.031 1.468 1.929 0 .719-.39 1.387-1.018 1.742-1.241.704-1.982 1.922-1.982 3.258 0 .552.447 1 1 1h11.5c-.346.781-.224 1.66.368 2.252l.184.183c.643.642 1.629.759 2.456.289.78-.443 1.767-.309 2.401.326.509.509.705 1.256.513 1.951-.38 1.375-.043 2.76.901 3.706.188.188.442.293.707.293s.52-.105.707-.293l8.707-8.707h31.556c.553 0 1-.448 1-1v-26c0-.552-.447-1-1-1zm-18.01-22.563 16.615 17.544-5.012 5.019h-14.179l10.293-10.293-1.414-1.414-11.707 11.707h-3.634c-.044-.172-.117-.336-.245-.464l-1.414-1.414-1.414 1.414.464.464h-2.829l-1.172-1.171 1.415-1.415.707.707 1.414-1.414-1.414-1.414c-.391-.391-1.023-.391-1.414 0l-2.829 2.829c-.188.188-.293.442-.293.707s.105.52.293.707l.465.464h-5.06zm-40.022 48.045c1.254-.709 2.032-2.043 2.032-3.482 0-1.795-1.208-3.381-3-3.87l.063-.273c1.729-.476 2.937-2.062 2.937-3.857s-1.208-3.381-3-3.87l.063-.273c1.729-.476 2.937-2.062 2.937-3.857 0-1.439-.778-2.773-2.031-3.482-.247-.14-.453-.316-.61-.518h15.284c-.158.201-.364.378-.61.518-1.255.709-2.033 2.043-2.033 3.482 0 1.795 1.208 3.381 3 3.87l-.063.273c-1.729.476-2.937 2.062-2.937 3.857s1.208 3.381 3 3.87l-.063.273c-1.729.476-2.937 2.062-2.937 3.857 0 1.439.778 2.773 2.031 3.482.247.14.453.316.61.518h-15.284c.159-.201.365-.378.611-.518zm17.316 8.851c-.031-.254-.01-.524.065-.797.385-1.388-.009-2.881-1.026-3.899-1.271-1.271-3.246-1.537-4.858-.616l-.148-.237c.14-.247.249-.512.334-.783h4.349 7.616zm39.716-8.333h-40.145c-.271-.928-.916-1.735-1.839-2.258-.626-.355-1.016-1.023-1.016-1.742 0-.898.604-1.691 1.467-1.929.917-.252 1.533-1.031 1.533-1.941v-.26c0-.909-.616-1.689-1.532-1.94-.864-.239-1.468-1.032-1.468-1.93s.604-1.691 1.467-1.929c.917-.252 1.533-1.031 1.533-1.941v-.26c0-.909-.616-1.689-1.532-1.94-.864-.239-1.468-1.032-1.468-1.93 0-.719.39-1.387 1.018-1.742.922-.523 1.567-1.33 1.838-2.258h40.144z"/><path d="m8 31h6v2h-6z"/><path d="m8 35h6v2h-6z"/><path d="m8 39h6v2h-6z"/><path d="m8 43h6v2h-6z"/><path d="m8 47h6v2h-6z"/><path d="m25 38h2v-6h2v-2h-6v2h2z"/><path d="m55 38h2v-6h2v-2h-6v2h2z"/><path d="m30 30h2v8h-2z"/><path d="m34 38h4c.553 0 1-.448 1-1v-2h-2v1h-2v-4h2v1h2v-2c0-.552-.447-1-1-1h-4c-.553 0-1 .448-1 1v6c0 .552.447 1 1 1z"/><path d="m42 34.618.803-.401 1.197 1.197v2.586h2v-3c0-.265-.105-.52-.293-.707l-1.019-1.019.759-.38c.339-.169.553-.515.553-.894v-2h-2v1.382l-2 1v-2.382h-2v8h2z"/><path d="m48 38h4v-2h-3v-1h3v-2h-3v-1h3v-2h-4c-.553 0-1 .448-1 1v6c0 .552.447 1 1 1z"/><path d="m42.485 10.686 4.243 4.243 1.414-1.414-4.243-4.243 1.414-1.414-1.414-1.414-4.242 4.243 1.414 1.414z"/><path d="m37.535 24.122-2.391-2.392.284-.851h1.694l1.829 1.828 1.414-1.414-2.122-2.121c-.188-.188-.442-.293-.707-.293h-1.441l.268-.805c.12-.359.026-.756-.241-1.023l-1.414-1.414-1.414 1.414.977.977-.707 2.121-1.684-1.684-1.414 1.414 5.656 5.657z"/><path d="m40.364 19.878c.195.195.451.293.707.293s.512-.098.707-.293l2.828-2.828-1.414-1.414-2.121 2.121-.707-.707 2.121-2.122-1.414-1.414-2.121 2.122-.708-.708 2.122-2.121-1.414-1.414-2.829 2.828c-.188.188-.293.442-.293.707s.105.52.293.707z"/><path d="m23 40h36v2h-36z"/><path d="m45 44h14v2h-14z"/><path d="m46.757 20h8.485v2h-8.485z" transform="matrix(.707 -.707 .707 .707 .088 42.213)"/><path d="m24 50h16c.553 0 1-.448 1-1v-4c0-.552-.447-1-1-1h-16c-.553 0-1 .448-1 1v4c0 .552.447 1 1 1zm1-4h14v2h-14z"/></g></svg>